<svg width="430" height="932" viewBox="0 0 430 932" fill="none" xmlns="http://www.w3.org/2000/svg">
<g clip-path="url(#clip0_1_2)">
<rect width="430" height="932" fill="black"/>
<line x1="0.44773" y1="64.7774" x2="430.448" y2="929.777" stroke="white" stroke-opacity="0.25"/>
<line x1="0.44773" y1="-0.222571" x2="430.448" y2="864.777" stroke="white" stroke-opacity="0.25"/>
<line x1="30.4479" y1="-0.222272" x2="430.448" y2="805.778" stroke="white" stroke-opacity="0.25"/>
<line x1="62.4476" y1="-0.22288" x2="430.448" y2="738.777" stroke="white" stroke-opacity="0.25"/>
<line x1="92.4476" y1="-0.222815" x2="430.448" y2="678.777" stroke="white" stroke-opacity="0.25"/>
<line x1="123.448" y1="-0.221297" x2="430.448" y2="621.779" stroke="white" stroke-opacity="0.25"/>
<line x1="152.448" y1="-0.222965" x2="430.448" y2="557.777" stroke="white" stroke-opacity="0.25"/>
<line x1="182.445" y1="-0.227636" x2="430.445" y2="484.772" stroke="white" stroke-opacity="0.25"/>
<line x1="213.446" y1="-0.226901" x2="433.446" y2="431.773" stroke="white" stroke-opacity="0.25"/>
<line x1="243.446" y1="-0.225534" x2="430.446" y2="369.774" stroke="white" stroke-opacity="0.25"/>
<line x1="273.446" y1="-0.226487" x2="430.446" y2="308.774" stroke="white" stroke-opacity="0.25"/>
<line x1="303.445" y1="-0.227177" x2="430.445" y2="248.773" stroke="white" stroke-opacity="0.25"/>
<line x1="333.443" y1="-0.232182" x2="430.443" y2="184.768" stroke="white" stroke-opacity="0.25"/>
<line x1="363.441" y1="-0.236209" x2="430.441" y2="124.764" stroke="white" stroke-opacity="0.25"/>
<line x1="393.435" y1="-0.247349" x2="430.435" y2="64.7527" stroke="white" stroke-opacity="0.25"/>
<line x1="0.449309" y1="124.781" x2="394.449" y2="931.781" stroke="white" stroke-opacity="0.25"/>
<line x1="0.449477" y1="184.781" x2="364.449" y2="931.781" stroke="white" stroke-opacity="0.25"/>
<line x1="0.449541" y1="244.781" x2="335.45" y2="932.781" stroke="white" stroke-opacity="0.25"/>
<line x1="0.449625" y1="304.781" x2="305.45" y2="931.781" stroke="white" stroke-opacity="0.25"/>
<line x1="0.45019" y1="364.782" x2="274.45" y2="931.782" stroke="white" stroke-opacity="0.25"/>
<line x1="0.450192" y1="424.782" x2="245.45" y2="931.782" stroke="white" stroke-opacity="0.25"/>
<line x1="0.450588" y1="484.783" x2="215.451" y2="931.783" stroke="white" stroke-opacity="0.25"/>
<line x1="0.45156" y1="544.785" x2="184.452" y2="931.785" stroke="white" stroke-opacity="0.25"/>
<line x1="0.450043" y1="617.782" x2="152.45" y2="931.782" stroke="white" stroke-opacity="0.25"/>
<line x1="0.449674" y1="678.781" x2="123.45" y2="931.781" stroke="white" stroke-opacity="0.25"/>
<line x1="0.451344" y1="738.785" x2="92.4513" y2="931.785" stroke="white" stroke-opacity="0.25"/>
<line x1="0.448629" y1="805.779" x2="62.4486" y2="931.779" stroke="white" stroke-opacity="0.25"/>
<line x1="0.448629" y1="868.779" x2="31.4486" y2="931.779" stroke="white" stroke-opacity="0.25"/>
<line x1="30.4552" y1="-0.793099" x2="0.455183" y2="65.2069" stroke="white" stroke-opacity="0.25"/>
<line x1="62.4479" y1="0.222172" x2="0.447926" y2="125.222" stroke="white" stroke-opacity="0.25"/>
<line x1="92.4477" y1="0.222638" x2="0.447694" y2="185.223" stroke="white" stroke-opacity="0.25"/>
<line x1="123.447" y1="0.224336" x2="0.446855" y2="245.224" stroke="white" stroke-opacity="0.25"/>
<line x1="153.447" y1="0.224193" x2="0.446925" y2="305.224" stroke="white" stroke-opacity="0.25"/>
<line x1="183.447" y1="0.224096" x2="0.446975" y2="365.224" stroke="white" stroke-opacity="0.25"/>
<line x1="213.447" y1="-0.776393" x2="0.447206" y2="425.224" stroke="white" stroke-opacity="0.25"/>
<line x1="243.447" y1="-0.776393" x2="0.447208" y2="485.224" stroke="white" stroke-opacity="0.25"/>
<line x1="273.447" y1="-0.776393" x2="0.44721" y2="545.224" stroke="white" stroke-opacity="0.25"/>
<line x1="303.449" y1="-0.780174" x2="0.44908" y2="618.22" stroke="white" stroke-opacity="0.25"/>
<line x1="333.449" y1="-0.780099" x2="0.449052" y2="679.22" stroke="white" stroke-opacity="0.25"/>
<line x1="363.449" y1="-0.779797" x2="0.448899" y2="739.22" stroke="white" stroke-opacity="0.25"/>
<line x1="393.449" y1="0.219135" x2="0.449415" y2="806.219" stroke="white" stroke-opacity="0.25"/>
<line x1="430.448" y1="-0.778456" x2="0.448243" y2="869.222" stroke="white" stroke-opacity="0.25"/>
<line x1="430.448" y1="64.222" x2="0.448029" y2="932.222" stroke="white" stroke-opacity="0.25"/>
<line x1="430.448" y1="124.221" x2="31.4483" y2="932.221" stroke="white" stroke-opacity="0.25"/>
<line x1="429.449" y1="185.22" x2="62.4488" y2="932.22" stroke="white" stroke-opacity="0.25"/>
<line x1="429.449" y1="245.22" x2="92.4489" y2="932.22" stroke="white" stroke-opacity="0.25"/>
<line x1="429.449" y1="305.219" x2="123.449" y2="932.219" stroke="white" stroke-opacity="0.25"/>
<line x1="429.449" y1="365.219" x2="152.449" y2="932.219" stroke="white" stroke-opacity="0.25"/>
<line x1="429.45" y1="425.218" x2="184.45" y2="932.218" stroke="white" stroke-opacity="0.25"/>
<line x1="430.451" y1="483.216" x2="215.451" y2="932.216" stroke="white" stroke-opacity="0.25"/>
<line x1="430.449" y1="558.221" x2="246.449" y2="932.221" stroke="white" stroke-opacity="0.25"/>
<line x1="430.448" y1="622.222" x2="276.448" y2="932.222" stroke="white" stroke-opacity="0.25"/>
<line x1="430.446" y1="685.226" x2="305.446" y2="932.226" stroke="white" stroke-opacity="0.25"/>
<line x1="429.447" y1="745.225" x2="335.447" y2="932.225" stroke="white" stroke-opacity="0.25"/>
<line x1="430.443" y1="806.232" x2="364.443" y2="932.232" stroke="white" stroke-opacity="0.25"/>
<line x1="430.44" y1="865.237" x2="394.44" y2="932.237" stroke="white" stroke-opacity="0.25"/>
</g>
<defs>
<clipPath id="clip0_1_2">
<rect width="430" height="932" fill="white"/>
</clipPath>
</defs>
</svg>
