<svg width="46" height="55" viewBox="0 0 46 55" fill="none" xmlns="http://www.w3.org/2000/svg">
<path d="M29.8788 14C24.7247 8.78045 25.8485 9.98905 16.7654 12.1354C15.3523 7.69872 15.8592 1.61505 18.5916 0.379656C21.324 -0.855739 21.8053 1.12925 20.5203 3.37991C25.9298 -0.135982 28.6599 -0.637723 32.7356 2.321C35.4012 5.20463 33.5688 7.96769 29.8788 14Z" fill="black"/>
<path d="M14.0165 20.999C11.1605 18.4544 11.5704 17.17 14.0165 15L0 16.8179C6.36898 18.0708 9.55245 18.9376 14.0165 20.999Z" fill="black"/>
<path d="M8.53718 26.3917C10.1922 24.7627 11.2584 24.1023 11.7623 22C14.2678 26.5251 15.1576 28.6857 12.5669 30.819C9.14399 31.6015 6.00549 28.6528 8.53718 26.3917Z" fill="url(#paint0_linear_3_24)"/>
<path d="M14.6776 30.1834C18.7014 27.3016 20.4813 25.5548 22.0585 22C21.7924 26.7244 20.0042 29.22 15.6002 33.5579C15.3012 35.2758 15.7593 36.2492 19.2907 38.0292C22.7951 40.0883 24.3682 40.6944 29.4394 44.9471C27.2655 42.1018 26.1696 40.5339 20.9821 37.0169C19.1497 34.9047 16.0265 33.927 20.9821 29.171C21.1532 33.3694 21.7303 35.2938 25.9027 35.9201C25.7924 34.179 26.5705 27.6451 28.0555 26.1339C29.8821 20.1332 54.6576 27.6524 42.6636 27.8211C30.6696 27.9899 46.3558 37.4429 39.4344 40.7289C40.6227 39.8378 41.2618 36.3241 37.743 36.5107C33.2902 36.5856 34.0945 36.2356 31.5922 38.0292V52.4797C31.6256 53.001 31.6209 53.5504 31.5922 54.1429V52.4797C31.426 49.8841 30.3158 47.9862 26.5178 44.9471C24.1801 41.4449 20.5669 40.2877 14.6776 38.0292C11.6402 35.4502 10.6116 33.8965 14.6776 30.1834Z" fill="black"/>
<circle cx="1" cy="1" r="1" transform="matrix(-1 0 0 1 19 14)" fill="url(#paint1_linear_3_24)"/>
<defs>
<linearGradient id="paint0_linear_3_24" x1="7.88114" y1="22.5389" x2="9.10045" y2="31.3199" gradientUnits="userSpaceOnUse">
<stop stop-color="#FF0000"/>
<stop offset="1" stop-color="#830D0D"/>
</linearGradient>
<linearGradient id="paint1_linear_3_24" x1="1" y1="0" x2="1" y2="2" gradientUnits="userSpaceOnUse">
<stop stop-color="#0047FF"/>
<stop offset="1" stop-color="#002B99"/>
</linearGradient>
</defs>
</svg>
